<?xml version="1.0" encoding="UTF-8"?>
<svg id="Layer_2" data-name="Layer 2" xmlns="http://www.w3.org/2000/svg" viewBox="0 0 380 70.34">
  <defs>
    <style>
      .cls-1 {
        fill: #ff634b;
        stroke-width: 0px;
      }
    </style>
  </defs>
  <g id="Layer_1-2" data-name="Layer 1">
    <g>
      <path class="cls-1" d="M36.89,50.28c-.93.83-1.95,1.62-3.09,2.38-.45.29-1.59.89-3.92,1.41-2.43.54-5.44.82-8.93.82h-.12l2.38-2.98,17.31-21.63,1.89-2.36,8.1-10.12,1.95-2.44c-.14-.22-.29-.44-.44-.66l.02-.03c-.96-1.45-2.04-2.81-3.24-4.09-.11-.12-.23-.23-.34-.35-.31-.33-.63-.65-.96-.96-.25-.24-.51-.48-.78-.71-.18-.16-.36-.32-.54-.48-.35-.3-.71-.6-1.08-.89-.03-.02-.06-.05-.09-.07-.95-.75-1.94-1.46-2.99-2.13-.03-.02-.06-.03-.09-.05l-.02.03c-2.42-1.46-5.23-2.56-8.47-3.26-.71-.16-1.48-.29-2.26-.41-2.79-.44-6-.66-9.64-.68-.1,0-.2,0-.3,0H.07s0,13.62,0,13.62h0v5.22h13.8v-4.89c.07,0,.15,0,.22,0,3.88.03,7.96.06,11.38.08,1.72.13,3.24.33,4.52.61.98.21,1.86.48,2.64.79l-1.46,1.74-3.42,4.08-13.66,16.32-.09.11v-.09L.2,54.62v.18l-.2.24v13.96l.2-.06v.13h21.03c4.55,0,8.55-.39,12-1.16,3.45-.77,6.32-1.9,8.59-3.39,4.12-2.71,7.44-5.9,9.98-9.55.71-1.02,1.37-2.07,1.96-3.17.27-.5.51-1.01.75-1.52h-17.63Z"/>
      <path class="cls-1" d="M62.87,69V1.3h17.17v67.7h-17.17Z"/>
      <path class="cls-1" d="M109.59,69L88.48,1.3h18.17l9.13,36.08c.43,1.62.86,3.51,1.28,5.69.42,2.18.83,4.54,1.23,7.07.35-2.71.71-5.1,1.08-7.16.37-2.06.78-3.93,1.21-5.6L129.96,1.3h17.09l-21.07,67.7h-16.39Z"/>
      <path class="cls-1" d="M156.74,69V1.3h37.94v13.11h-20.94v13.84h20.94v13.11h-20.94v13.93h20.94v13.71h-37.94Z"/>
      <path class="cls-1" d="M206.57,69V1.3h24.83c7.58,0,13.6,1.96,18.04,5.88,4.44,3.92,6.66,9.2,6.66,15.83,0,5.22-1.34,9.46-4.02,12.72-2.68,3.26-6.33,5.1-10.95,5.54l17.69,27.73h-20.46l-14.79-28.81v28.81h-17ZM228.2,14.49h-4.63v18.73h5.06c3.26,0,5.78-.82,7.55-2.47,1.77-1.64,2.66-3.99,2.66-7.05s-.87-5.43-2.62-6.94c-1.75-1.51-4.42-2.27-8.02-2.27Z"/>
      <path class="cls-1" d="M313.21,22.84c-1.67-2.51-3.76-4.42-6.25-5.73-2.5-1.31-5.3-1.97-8.41-1.97-5.34,0-9.7,1.87-13.08,5.6-3.39,3.73-5.08,8.54-5.08,14.43s1.69,10.69,5.08,14.43c3.39,3.74,7.75,5.6,13.08,5.6,4.12,0,7.71-1.01,10.77-3.03,3.06-2.02,5.31-4.89,6.75-8.61h-17.52v-12.93h35.08c0,.35.04,1,.13,1.95.09.95.13,1.66.13,2.12,0,3.49-.43,6.92-1.3,10.3-.87,3.37-1.98,6.11-3.33,8.22-3.72,5.8-8.1,10.1-13.13,12.91-5.03,2.81-10.89,4.22-17.58,4.22-4.99,0-9.63-.85-13.93-2.55-4.3-1.7-8.1-4.19-11.42-7.48-3.29-3.23-5.78-6.98-7.48-11.25-1.7-4.27-2.55-8.9-2.55-13.89s.85-9.66,2.55-13.93c1.7-4.27,4.2-8.05,7.48-11.33,3.26-3.26,7.03-5.72,11.31-7.4,4.28-1.67,8.96-2.51,14.04-2.51,5.51,0,10.53.99,15.05,2.99,4.53,1.99,8.56,4.97,12.11,8.95l-12.5,10.9Z"/>
      <path class="cls-1" d="M342.06,69V1.3h37.94v13.11h-20.94v13.84h20.94v13.11h-20.94v13.93h20.94v13.71h-37.94Z"/>
    </g>
  </g>
</svg>